<mxfile host="app.diagrams.net" agent="Mozilla/5.0 (Windows NT 10.0; Win64; x64) AppleWebKit/537.36 (KHTML, like Gecko) Chrome/127.0.0.0 Safari/537.36 OPR/113.0.0.0 (Edition std-1)" modified="2024-09-16T11:00:09.888Z" version="24.3.0" etag="nmrFqk_A-0hQg2O16nQx" type="device">
  <diagram name="PÃ¡gina-1" id="UdD7n-j1Iyz5rAO-LZ76">
    <mxGraphModel dx="1249" dy="547" grid="0" gridSize="10" guides="1" tooltips="1" connect="1" arrows="1" fold="1" page="1" pageScale="1" pageWidth="827" pageHeight="1169" math="0" shadow="0">
      <root>
        <mxCell id="0" />
        <mxCell id="1" parent="0" />
        <mxCell id="cTC2yGjYUlroa5dwME0Z-1" value="" style="rounded=1;whiteSpace=wrap;html=1;" parent="1" vertex="1">
          <mxGeometry x="190" y="160" width="550" height="280" as="geometry" />
        </mxCell>
        <mxCell id="cTC2yGjYUlroa5dwME0Z-6" value="KALI Linux&lt;div&gt;&lt;br/&gt;&lt;/div&gt;" style="fontColor=#0066CC;verticalAlign=top;verticalLabelPosition=bottom;labelPosition=center;align=center;html=1;outlineConnect=0;fillColor=#CCCCCC;strokeColor=#6881B3;gradientColor=none;gradientDirection=north;strokeWidth=2;shape=mxgraph.networks.pc;" parent="1" vertex="1">
          <mxGeometry x="37" y="22" width="100" height="70" as="geometry" />
        </mxCell>
        <mxCell id="cTC2yGjYUlroa5dwME0Z-12" value="&lt;b&gt;10.0.0.0/24&lt;/b&gt;" style="text;html=1;align=center;verticalAlign=middle;resizable=0;points=[];autosize=1;strokeColor=none;fillColor=none;" parent="1" vertex="1">
          <mxGeometry x="630" y="137.85" width="80" height="30" as="geometry" />
        </mxCell>
        <mxCell id="Ws5Fzl8oVfcJUwxU3Ofa-1" value="&lt;span style=&quot;text-wrap: nowrap; background-color: rgb(255, 255, 255);&quot;&gt;Open VPN Server&lt;/span&gt;&lt;br style=&quot;text-wrap: nowrap;&quot;&gt;&lt;span style=&quot;text-wrap: nowrap; background-color: rgb(255, 255, 255);&quot;&gt;172.27.232.4&lt;/span&gt;" style="text;html=1;align=center;verticalAlign=middle;whiteSpace=wrap;rounded=0;" vertex="1" parent="1">
          <mxGeometry x="174" y="215.70999999999998" width="60" height="30" as="geometry" />
        </mxCell>
        <mxCell id="cTC2yGjYUlroa5dwME0Z-2" value="WIN 10 Pro&lt;br&gt;10.0.0.40" style="shape=mxgraph.cisco.computers_and_peripherals.pc;html=1;pointerEvents=1;dashed=0;fillColor=#036897;strokeColor=#ffffff;strokeWidth=2;verticalLabelPosition=bottom;verticalAlign=top;align=center;outlineConnect=0;" parent="1" vertex="1">
          <mxGeometry x="590" y="310" width="78" height="70" as="geometry" />
        </mxCell>
        <mxCell id="cTC2yGjYUlroa5dwME0Z-3" value="Ubuntu 13.4&lt;br&gt;10.0.0.56" style="shape=mxgraph.cisco.computers_and_peripherals.pc;html=1;pointerEvents=1;dashed=0;fillColor=#036897;strokeColor=#ffffff;strokeWidth=2;verticalLabelPosition=bottom;verticalAlign=top;align=center;outlineConnect=0;" parent="1" vertex="1">
          <mxGeometry x="590" y="170" width="78" height="70" as="geometry" />
        </mxCell>
        <mxCell id="cTC2yGjYUlroa5dwME0Z-4" value="WIN 10 Pro&lt;br&gt;10.0.0.119&lt;div&gt;&lt;br/&gt;&lt;/div&gt;" style="shape=mxgraph.cisco.computers_and_peripherals.pc;html=1;pointerEvents=1;dashed=0;fillColor=#036897;strokeColor=#ffffff;strokeWidth=2;verticalLabelPosition=bottom;verticalAlign=top;align=center;outlineConnect=0;" parent="1" vertex="1">
          <mxGeometry x="480" y="240" width="78" height="70" as="geometry" />
        </mxCell>
        <mxCell id="cTC2yGjYUlroa5dwME0Z-9" value="WIN Server 2019&lt;br&gt;10.0.0.83&lt;div&gt;&lt;br&gt;&lt;/div&gt;" style="image;html=1;image=img/lib/clip_art/computers/Server_128x128.png" parent="1" vertex="1">
          <mxGeometry x="280" y="235" width="80" height="80" as="geometry" />
        </mxCell>
        <mxCell id="cTC2yGjYUlroa5dwME0Z-10" value="&lt;div&gt;&lt;br&gt;&lt;/div&gt;" style="image;aspect=fixed;perimeter=ellipsePerimeter;html=1;align=center;shadow=0;dashed=0;spacingTop=3;image=img/lib/active_directory/generic_server.svg;" parent="1" vertex="1">
          <mxGeometry x="180" y="129.99999999999997" width="48" height="85.71" as="geometry" />
        </mxCell>
        <mxCell id="Ws5Fzl8oVfcJUwxU3Ofa-2" value="" style="endArrow=classic;html=1;rounded=0;entryX=0;entryY=0.117;entryDx=0;entryDy=0;entryPerimeter=0;" edge="1" parent="1" target="cTC2yGjYUlroa5dwME0Z-10">
          <mxGeometry width="50" height="50" relative="1" as="geometry">
            <mxPoint x="120" y="100" as="sourcePoint" />
            <mxPoint x="170" y="50" as="targetPoint" />
          </mxGeometry>
        </mxCell>
      </root>
    </mxGraphModel>
  </diagram>
</mxfile>
